<svg xmlns="http://www.w3.org/2000/svg" width="200" height="150" viewBox="0 50 200 150">
            <style>  .a{fill:#800080;stroke-width:0.3;}.b{fill:#00f;stroke-width:0.3;}.c{fill:#0ff;stroke-width:0.3;}.d{fill:#000080;stroke-width:0.3;}.e{fill:#0f0;stroke-width:0.3;}.f{fill:#fff;stroke-width:0.3;}</style>
            <path d="M88.6 98.1 82.6 108.6H70.5l-6-10.5 6-10.5 12.1 0z" class="a"/>
            <path d="M88.6 77.1 82.6 87.6H70.5l-6-10.5 6-10.5 12.1 0z" class="b"/>
            <path d="M70.5 87.6 64.4 98.1H52.3l-6-10.5 6-10.5 12.1 0z" class="c"/>
            <path d="m70.5 108.6-6 10.5H52.3l-6-10.5 6-10.5 12.1 0z" class="b"/>
            <path d="M70.5 66.7 64.4 77.1H52.3l-6-10.5 6-10.5 12.1 0z" class="d"/>
            <path d="M52.3 98.1 46.3 108.6H34.2L28.1 98.1 34.2 87.6l12.1 0z" class="e"/>
            <path d="M52.3 77.1 46.3 87.6H34.2l-6-10.5 6-10.5 12.1 0z" class="a"/>
            <path d="m143 108.6-6 10.5h-12.1l-6-10.5 6-10.5 12.1 0z" class="a"/>
            <path d="m143 87.6-6 10.5h-12.1l-6-10.5 6-10.5 12.1 0z" class="b"/>
            <path d="m124.9 98.1-6 10.5h-12.1l-6-10.5 6-10.5 12.1 0z" class="c"/>
            <path d="m124.9 119-6 10.5h-12.1l-6-10.5 6-10.5 12.1 0z" class="b"/>
            <path d="m124.9 77.1-6 10.5h-12.1l-6-10.5 6-10.5 12.1 0z" class="d"/>
            <path d="m106.8 108.6-6 10.5H88.6l-6-10.5 6-10.5 12.1 0z" class="e"/>
            <path d="m106.8 87.6-6 10.5H88.6l-6-10.5 6-10.5 12.1 0z" class="a"/>
            <path d="m124.9 160.9-6 10.5h-12.1l-6-10.5 6-10.5h12.1z" class="a"/>
            <path d="m124.9 140-6 10.5h-12.1l-6-10.5 6-10.5h12.1z" class="b"/>
            <path d="m106.8 150.4-6 10.5H88.6l-6-10.5 6-10.5h12.1z" class="c"/>
            <path d="m106.8 171.4-6 10.5H88.6l-6-10.5 6-10.5h12.1z" class="b"/>
            <path d="m106.8 129.5-6 10.5H88.6l-6-10.5 6-10.5 12.1 0z" class="d"/>
            <path d="M88.6 160.9 82.6 171.4H70.5l-6-10.5 6-10.5H82.6Z" class="e"/>
            <path d="M88.6 140 82.6 150.4H70.5L64.4 140 70.5 129.5H82.6Z" class="a"/>
            <path d="m70.5 150.4-6 10.5H52.3l-6-10.5 6-10.5h12.1z" class="a"/>
            <path d="m70.5 129.5-6 10.5H52.3l-6-10.5 6-10.5 12.1 0z" class="b"/>
            <path d="m52.3 140-6 10.5H34.2l-6-10.5 6-10.5h12.1z" class="c"/>
            <path d="m52.3 160.9-6 10.5H34.2l-6-10.5 6-10.5h12.1z" class="b"/>
            <path d="M52.3 119 46.3 129.5H34.2l-6-10.5 6-10.5 12.1 0z" class="d"/>
            <path d="m34.2 150.4-6 10.5H16L10 150.4 16 140h12.1z" class="e"/>
            <path d="m34.2 129.5-6 10.5H16L10 129.5l6-10.5 12.1 0z" class="a"/>
            <path d="m179.3 150.4-6 10.5h-12.1l-6-10.5 6-10.5h12.1z" class="a"/>
            <path d="m179.3 129.5-6 10.5h-12.1l-6-10.5 6-10.5 12.1 0z" class="b"/>
            <path d="m161.2 140-6 10.5h-12.1l-6-10.5 6-10.5h12.1z" class="c"/>
            <path d="m161.2 160.9-6 10.5h-12.1l-6-10.5 6-10.5h12.1z" class="b"/>
            <path d="m161.2 119-6 10.5h-12.1l-6-10.5 6-10.5 12.1 0z" class="d"/>
            <path d="m143 150.4-6 10.5h-12.1l-6-10.5 6-10.5h12.1z" class="e"/>
            <path d="m143 129.5-6 10.5h-12.1l-6-10.5 6-10.5 12.1 0z" class="a"/></svg>
